<svg width="108" height="16" viewBox="0 0 108 16" fill="none" xmlns="http://www.w3.org/2000/svg">
<path d="M0 15.1685V0H9.10112V3.03371H3.03371V6.06742H9.10112V9.10112H3.03371V15.1685H0Z" fill="#009B92"/>
<path d="M12.7416 15.1685V0H21.8427V3.03371H24.8764V6.06742H21.8427V12.1348H24.8764V15.1685H21.8427V12.1348H18.809V9.10112H15.7753V15.1685H12.7416ZM15.7753 6.06742H21.7213V3.03371H15.7753V6.06742Z" fill="#009B92"/>
<path d="M28.5169 15.1685V0H31.5506V15.1685H28.5169Z" fill="#009B92"/>
<path d="M35.191 15.1685V0H44.2921V3.03371H38.2247V6.06742H44.2921V9.10112H38.2247V12.1348H44.2921V15.1685H35.191Z" fill="#009B92"/>
<path d="M47.9326 15.1685V0H50.9663V3.03371H54V6.06742H57.0337V9.10112H60.0674V0H63.1011V15.1685H60.0674V12.1348H57.0337V9.10112H54V6.06742H50.9663V15.1685H47.9326Z" fill="#009B92"/>
<path d="M66.7416 15.1685V0H75.8427V3.03371H78.8764V12.1348H75.8427V15.1685H66.7416ZM69.7753 12.1348H75.7213V3.03371H69.7753V12.1348Z" fill="#009B92"/>
<path d="M82.5169 15.1685V12.1348H85.5506V15.1685H82.5169Z" fill="#009B92"/>
<path d="M89.191 15.1685V3.03371H92.2247V0H98.2921V3.03371H101.326V15.1685H98.2921V9.10112H92.2247V15.1685H89.191ZM92.2247 6.06742H98.2921V3.15506H92.2247V6.06742Z" fill="#009B92"/>
<path d="M104.966 15.1685V0H108V15.1685H104.966Z" fill="#009B92"/>
</svg>
